<?xml version="1.0" encoding="UTF-8" standalone="no"?>
<svg width="128" height="128" viewBox="0 0 128 128" xmlns="http://www.w3.org/2000/svg">
  <defs>
    <!-- Gradients -->
    <linearGradient id="backgroundGradient" x1="0%" y1="0%" x2="100%" y2="100%">
      <stop offset="0%" stop-color="#34495E" />
      <stop offset="100%" stop-color="#1E2A37" />
    </linearGradient>
    
    <linearGradient id="diamondGradient" x1="0%" y1="0%" x2="100%" y2="100%">
      <stop offset="0%" stop-color="#5EDFFF" />
      <stop offset="100%" stop-color="#2980B9" />
    </linearGradient>
    
    <linearGradient id="stoneGradient" x1="0%" y1="0%" x2="100%" y2="100%">
      <stop offset="0%" stop-color="#444444" />
      <stop offset="100%" stop-color="#292929" />
    </linearGradient>
    
    <linearGradient id="hudGradient" x1="0%" y1="0%" x2="0%" y2="100%">
      <stop offset="0%" stop-color="#2ECC71" />
      <stop offset="100%" stop-color="#27AE60" />
    </linearGradient>
    
    <!-- Filters -->
    <filter id="glow" x="-20%" y="-20%" width="140%" height="140%">
      <feGaussianBlur stdDeviation="2" result="blur" />
      <feComposite in="SourceGraphic" in2="blur" operator="over" />
    </filter>
    
    <filter id="innerShadow" x="-50%" y="-50%" width="200%" height="200%">
      <feGaussianBlur in="SourceAlpha" stdDeviation="3" result="blur"/>
      <feOffset dx="0" dy="0" result="offsetBlur"/>
      <feComposite in="SourceGraphic" in2="offsetBlur" operator="over"/>
    </filter>
    
    <filter id="drop-shadow" x="-30%" y="-30%" width="160%" height="160%">
      <feGaussianBlur in="SourceAlpha" stdDeviation="3"/>
      <feOffset dx="2" dy="2" result="offsetblur"/>
      <feComponentTransfer>
        <feFuncA type="linear" slope="0.4"/>
      </feComponentTransfer>
      <feMerge> 
        <feMergeNode/>
        <feMergeNode in="SourceGraphic"/> 
      </feMerge>
    </filter>
  </defs>
  
  <!-- Background with rounded corners and gradient -->
  <rect x="0" y="0" width="128" height="128" rx="18" ry="18" fill="url(#backgroundGradient)" />
  
  <!-- Inner glow border -->
  <rect x="6" y="6" width="116" height="116" rx="14" ry="14" fill="none" stroke="#4D7FDB" stroke-width="2" opacity="0.6" filter="url(#glow)"/>
  
  <!-- 3D Block Grid (representing block search) -->
  <g transform="translate(20, 15) scale(0.85)">
    <!-- Diamond Block Center (with 3D effect) -->
    <g filter="url(#drop-shadow)">
      <!-- Top face -->
      <polygon points="50,35 40,40 50,45 60,40" fill="#85D0FF" stroke="#2980B9" stroke-width="1" />
      <!-- Left face -->
      <polygon points="40,40 40,60 50,65 50,45" fill="url(#diamondGradient)" stroke="#2980B9" stroke-width="1" />
      <!-- Right face -->
      <polygon points="50,45 50,65 60,60 60,40" fill="#2C72A3" stroke="#2980B9" stroke-width="1" />
    </g>
    
    <!-- Surrounding Blocks (with stone texture) -->
    <g opacity="0.9" filter="url(#innerShadow)">
      <!-- Row 1 -->
      <g transform="translate(20,20)">
        <polygon points="10,0 0,5 10,10 20,5" fill="#5A5A5A" stroke="#222222" stroke-width="1" />
        <polygon points="0,5 0,15 10,20 10,10" fill="url(#stoneGradient)" stroke="#222222" stroke-width="1" />
        <polygon points="10,10 10,20 20,15 20,5" fill="#333333" stroke="#222222" stroke-width="1" />
      </g>
      
      <g transform="translate(40,20)">
        <polygon points="10,0 0,5 10,10 20,5" fill="#5A5A5A" stroke="#222222" stroke-width="1" />
        <polygon points="0,5 0,15 10,20 10,10" fill="url(#stoneGradient)" stroke="#222222" stroke-width="1" />
        <polygon points="10,10 10,20 20,15 20,5" fill="#333333" stroke="#222222" stroke-width="1" />
      </g>
      
      <g transform="translate(60,20)">
        <polygon points="10,0 0,5 10,10 20,5" fill="#5A5A5A" stroke="#222222" stroke-width="1" />
        <polygon points="0,5 0,15 10,20 10,10" fill="url(#stoneGradient)" stroke="#222222" stroke-width="1" />
        <polygon points="10,10 10,20 20,15 20,5" fill="#333333" stroke="#222222" stroke-width="1" />
      </g>
      
      <!-- Row 2, Left & Right -->
      <g transform="translate(20,40)">
        <polygon points="10,0 0,5 10,10 20,5" fill="#5A5A5A" stroke="#222222" stroke-width="1" />
        <polygon points="0,5 0,15 10,20 10,10" fill="url(#stoneGradient)" stroke="#222222" stroke-width="1" />
        <polygon points="10,10 10,20 20,15 20,5" fill="#333333" stroke="#222222" stroke-width="1" />
      </g>
      
      <g transform="translate(60,40)">
        <polygon points="10,0 0,5 10,10 20,5" fill="#5A5A5A" stroke="#222222" stroke-width="1" />
        <polygon points="0,5 0,15 10,20 10,10" fill="url(#stoneGradient)" stroke="#222222" stroke-width="1" />
        <polygon points="10,10 10,20 20,15 20,5" fill="#333333" stroke="#222222" stroke-width="1" />
      </g>
      
      <!-- Row 3 -->
      <g transform="translate(20,60)">
        <polygon points="10,0 0,5 10,10 20,5" fill="#5A5A5A" stroke="#222222" stroke-width="1" />
        <polygon points="0,5 0,15 10,20 10,10" fill="url(#stoneGradient)" stroke="#222222" stroke-width="1" />
        <polygon points="10,10 10,20 20,15 20,5" fill="#333333" stroke="#222222" stroke-width="1" />
      </g>
      
      <g transform="translate(40,60)">
        <polygon points="10,0 0,5 10,10 20,5" fill="#5A5A5A" stroke="#222222" stroke-width="1" />
        <polygon points="0,5 0,15 10,20 10,10" fill="url(#stoneGradient)" stroke="#222222" stroke-width="1" />
        <polygon points="10,10 10,20 20,15 20,5" fill="#333333" stroke="#222222" stroke-width="1" />
      </g>
      
      <g transform="translate(60,60)">
        <polygon points="10,0 0,5 10,10 20,5" fill="#5A5A5A" stroke="#222222" stroke-width="1" />
        <polygon points="0,5 0,15 10,20 10,10" fill="url(#stoneGradient)" stroke="#222222" stroke-width="1" />
        <polygon points="10,10 10,20 20,15 20,5" fill="#333333" stroke="#222222" stroke-width="1" />
      </g>
    </g>
    
    <!-- Search Highlight (pulse effect with more advanced animation) -->
    <circle cx="50" cy="50" r="32" fill="none" stroke="url(#diamondGradient)" stroke-width="2.5" opacity="0.8" filter="url(#glow)">
      <animate attributeName="r" values="28;36;28" dur="3s" repeatCount="indefinite"/>
      <animate attributeName="stroke-width" values="3;1.5;3" dur="3s" repeatCount="indefinite"/>
      <animate attributeName="opacity" values="0.7;0.3;0.7" dur="3s" repeatCount="indefinite"/>
    </circle>
    
    <!-- Secondary pulse (offset) -->
    <circle cx="50" cy="50" r="25" fill="none" stroke="#2980B9" stroke-width="1.5" opacity="0.4">
      <animate attributeName="r" values="25;35;25" dur="3s" begin="1.5s" repeatCount="indefinite"/>
      <animate attributeName="opacity" values="0.5;0.1;0.5" dur="3s" begin="1.5s" repeatCount="indefinite"/>
    </circle>
  </g>
  
  <!-- "CST" Text with stylized appearance -->
  <g filter="url(#drop-shadow)">
    <text x="64" y="104" font-family="Arial, Helvetica, sans-serif" font-size="26" font-weight="bold" 
          text-anchor="middle" fill="#ECF0F1" stroke="#2C3E50" stroke-width="1">CST</text>
  </g>
  
  <!-- HUD Element (top right corner) - modern design -->
  <g transform="translate(85, 25)" filter="url(#drop-shadow)">
    <rect x="0" y="0" width="25" height="15" rx="3" ry="3" fill="url(#hudGradient)" opacity="0.9"/>
    <line x1="3" y1="5" x2="22" y2="5" stroke="#ECF0F1" stroke-width="1.5" stroke-linecap="round"/>
    <line x1="3" y1="10" x2="15" y2="10" stroke="#ECF0F1" stroke-width="1.5" stroke-linecap="round"/>
  </g>
  
  <!-- Combat Target Indicator - more stylized -->
  <g transform="translate(18, 25)" filter="url(#glow)">
    <circle cx="0" cy="0" r="8" fill="none" stroke="#E74C3C" stroke-width="2" opacity="0.9">
      <animate attributeName="opacity" values="0.9;0.7;0.9" dur="2s" repeatCount="indefinite"/>
    </circle>
    <line x1="-6" y1="0" x2="6" y2="0" stroke="#E74C3C" stroke-width="2" stroke-linecap="round"/>
    <line x1="0" y1="-6" x2="0" y2="6" stroke="#E74C3C" stroke-width="2" stroke-linecap="round"/>
    <!-- Targeting dots -->
    <circle cx="-9" cy="0" r="1" fill="#E74C3C"/>
    <circle cx="9" cy="0" r="1" fill="#E74C3C"/>
    <circle cx="0" cy="-9" r="1" fill="#E74C3C"/>
    <circle cx="0" cy="9" r="1" fill="#E74C3C"/>
  </g>
  
  <!-- Dynamic connection lines -->
  <g opacity="0.6" stroke="#3498DB" stroke-width="1" stroke-dasharray="3,2">
    <line x1="25" y1="32" x2="45" y2="45" stroke-linecap="round" filter="url(#glow)">
      <animate attributeName="opacity" values="0.2;0.6;0.2" dur="4s" repeatCount="indefinite"/>
    </line>
    <line x1="92" y1="33" x2="70" y2="45" stroke-linecap="round" filter="url(#glow)">
      <animate attributeName="opacity" values="0.6;0.2;0.6" dur="4s" repeatCount="indefinite"/>
    </line>
  </g>

  <!-- Corner accents -->
  <path d="M10,10 L20,10 L10,20 Z" fill="#3498DB" opacity="0.7" />
  <path d="M118,10 L108,10 L118,20 Z" fill="#3498DB" opacity="0.7" />
  <path d="M10,118 L20,118 L10,108 Z" fill="#3498DB" opacity="0.7" />
  <path d="M118,118 L108,118 L118,108 Z" fill="#3498DB" opacity="0.7" />
</svg>
